<svg id="Layer_1" enable-background="new 0 0 512 512" height="512" viewBox="0 0 512 512" width="512" xmlns="http://www.w3.org/2000/svg"><g><path d="m279.98 84.681h-59.354v-69.681h12.501c4.142 0 7.501-3.358 7.501-7.5s-3.359-7.5-7.501-7.5h-151.232c-4.142 0-7.501 3.358-7.501 7.5s3.358 7.5 7.501 7.5h12.501v69.681h-59.354c-19.323 0-35.042 15.718-35.042 35.039v324.922c0 17.61 13.059 32.227 30.002 34.677v10.181c0 12.407 10.094 22.5 22.502 22.5s22.502-10.093 22.502-22.5v-9.819h165.011v9.819c0 12.407 10.094 22.5 22.502 22.5 12.407 0 22.502-10.093 22.502-22.5v-10.181c16.943-2.451 30.002-17.067 30.002-34.677v-267.827c0-4.142-3.358-7.5-7.501-7.5s-7.501 3.358-7.501 7.5v267.827c0 11.05-8.99 20.039-20.04 20.039h-244.939c-11.05 0-20.04-8.989-20.04-20.039v-324.922c0-11.05 8.99-20.039 20.04-20.039h244.938c11.051 0 20.04 8.989 20.04 20.039v21.985c0 4.142 3.358 7.5 7.501 7.5s7.501-3.358 7.501-7.5v-21.985c-.001-19.321-15.72-35.039-35.042-35.039zm-9.962 395v9.819c0 4.136-3.365 7.5-7.501 7.5s-7.501-3.364-7.501-7.5v-9.819zm-210.014 0v9.819c0 4.136-3.365 7.5-7.501 7.5s-7.5-3.364-7.5-7.5v-9.819zm49.393-464.681h96.228v69.681h-96.228z"/><path d="m101.78 449.681h175.739c4.143 0 7.501-3.358 7.501-7.5v-167c0-4.142-3.358-7.5-7.501-7.5h-240.016c-4.142 0-7.501 3.358-7.501 7.5v167c0 4.142 3.358 7.5 7.501 7.5h30.002c4.142 0 7.501-3.358 7.501-7.5s-3.358-7.5-7.501-7.5h-22.502v-152h225.015v152h-168.238c-4.142 0-7.501 3.358-7.501 7.5s3.359 7.5 7.501 7.5z"/><path d="m223.516 344.176c4.142 0 7.501-3.358 7.501-7.5v-24.361h16.501c4.143 0 7.501-3.358 7.501-7.5s-3.358-7.5-7.501-7.5h-180.013c-4.142 0-7.501 3.358-7.501 7.5s3.358 7.5 7.501 7.5h148.51v24.361c0 4.142 3.358 7.5 7.501 7.5z"/><path d="m207.514 204.609c4.142 0 7.501-3.358 7.501-7.5v-30c0-4.142-3.358-7.5-7.501-7.5h-100.007c-4.142 0-7.501 3.358-7.501 7.5v30c0 4.142 3.358 7.5 7.501 7.5zm-92.506-30h85.006v15h-85.006z"/><path d="m476.958 234.366h-59.616v-28.533c0-13.155-10.703-23.857-23.859-23.857h-56.455c-4.143 0-7.501 3.358-7.501 7.5s3.358 7.5 7.501 7.5h56.455c4.884 0 8.858 3.974 8.858 8.857v28.533h-65.313c-4.143 0-7.501 3.358-7.501 7.5s3.358 7.5 7.501 7.5h65.313v14.994l-15.854 16.149c-1.376 1.402-2.148 3.289-2.148 5.254v46c0 4.142 3.358 7.5 7.501 7.5h36.003c4.143 0 7.501-3.358 7.501-7.5v-46c0-1.965-.772-3.852-2.148-5.254l-15.854-16.149v-14.994h59.616c11.051 0 20.041 8.989 20.041 20.039v118.194h-25.517c-4.143 0-7.501 3.358-7.501 7.5s3.358 7.5 7.501 7.5h25.517v19.764h-159.972c-4.143 0-7.501 3.358-7.501 7.5s3.358 7.5 7.501 7.5h159.972v7.28c0 11.05-8.991 20.039-20.041 20.039h-139.931c-4.143 0-7.501 3.358-7.501 7.5s3.358 7.5 7.501 7.5h102.428v9.819c0 12.407 10.094 22.5 22.502 22.5s22.502-10.093 22.502-22.5v-10.627c15.73-3.444 27.541-17.485 27.541-34.232v-175.237c0-19.321-15.72-35.039-35.042-35.039zm-56.617 89.897h-21.001v-35.434l10.501-10.696 10.501 10.696v35.434zm49.116 165.237c0 4.136-3.365 7.5-7.501 7.5s-7.501-3.364-7.501-7.5v-9.819h15.001v9.819z"/><path d="m337.027 402.599h99.794c4.143 0 7.501-3.358 7.501-7.5s-3.358-7.5-7.501-7.5h-99.794c-4.143 0-7.501 3.358-7.501 7.5s3.358 7.5 7.501 7.5z"/></g></svg>