<?xml version="1.0" ?><svg style="enable-background:new 0 0 32 32;" version="1.1" viewBox="0 0 32 32" xml:space="preserve" xmlns="http://www.w3.org/2000/svg" xmlns:xlink="http://www.w3.org/1999/xlink"><style type="text/css">
	.st0{fill:#222A30;}
	.st1{fill:none;stroke:#222A30;stroke-width:1.8761;stroke-linejoin:round;stroke-miterlimit:10;}
	.st2{fill:#171715;}
	.st3{fill-rule:evenodd;clip-rule:evenodd;fill:#222A30;}
</style><g id="Layer_1"/><g id="icons"><path class="st0" d="M2,10.7v10.7c0,4.8,3.9,8.7,8.7,8.7h6.2V19.2h-3.2c-0.3,0-0.5-0.2-0.5-0.5v-3.5   c0-0.3,0.2-0.5,0.5-0.5h3.2v-3.7c0-2.7,2.2-4.9,4.9-4.9h3.3c0.3,0,0.5,0.2,0.5,0.5v3c0,0.3-0.2,0.5-0.5,0.5h-2.3   c-0.9,0-1.6,0.7-1.6,1.6v3.1H25c0.3,0,0.5,0.3,0.5,0.5L25,18.8c0,0.2-0.2,0.4-0.5,0.4h-3.2V30h0c4.8,0,8.7-3.9,8.7-8.7V10.7   C30,5.9,26.1,2,21.3,2H10.7C5.9,2,2,5.9,2,10.7z" id="facebook"/></g></svg>