<?xml version="1.0" ?><svg style="enable-background:new 0 0 32 32;" version="1.1" viewBox="0 0 32 32" xml:space="preserve" xmlns="http://www.w3.org/2000/svg" xmlns:xlink="http://www.w3.org/1999/xlink"><style type="text/css">
	.st0{fill:#222A30;}
	.st1{fill:none;stroke:#222A30;stroke-width:1.8761;stroke-linejoin:round;stroke-miterlimit:10;}
	.st2{fill:#171715;}
	.st3{fill-rule:evenodd;clip-rule:evenodd;fill:#222A30;}
</style><g id="Layer_1"/><g id="icons"><g id="skype"><path class="st0" d="M20.9,18c0,1.6-1.6,3.2-4.2,3.2c-2.7,0-4-1-4.4-2.2c-0.4-1.3,0.5-1.6,0.8-1.6c0.3,0,0.9,0,1.1,0.6    c0.2,0.5,0.8,1.6,2,1.7c1.3,0.1,2.1-0.5,2.4-1.1c0.3-0.6-0.2-1.5-2.2-1.7c-2-0.3-4-1.2-4-3.1c0-2,2.3-2.8,4.4-2.8s3.2,1.2,3.5,1.7    c0.3,0.6,0.2,1.6-0.5,1.7c-0.7,0.2-1.1-0.2-1.7-1.2c-0.6-1-2.5-0.8-3.2-0.2c-0.7,0.6-0.5,1.4,2.3,2C19.8,15.5,20.9,16.5,20.9,18z"/><path class="st0" d="M16,2.2c-3.8,0-7.3,1.5-9.8,4c-2.5,2.5-4,6-4,9.8c0,3.8,1.5,7.3,4,9.8c2.5,2.5,6,4,9.8,4c3.8,0,7.3-1.5,9.8-4    c2.5-2.5,4-6,4-9.8C29.8,8.4,23.6,2.2,16,2.2z M20.1,24c-0.8,0-1.5-0.2-2.2-0.6c-0.5,0.1-0.9,0.1-1.4,0.1c-4.1,0-7.5-3.3-7.5-7.5    c0-0.5,0.1-1,0.1-1.4c-0.4-0.6-0.6-1.4-0.6-2.2c0-2.4,1.9-4.3,4.3-4.3c0.8,0,1.5,0.2,2.2,0.6c0.5-0.1,0.9-0.1,1.4-0.1    c4.1,0,7.5,3.4,7.5,7.5c0,0.5,0,1-0.1,1.4c0.4,0.6,0.6,1.4,0.6,2.2C24.4,22.1,22.5,24,20.1,24z"/></g></g></svg>