<?xml version="1.0" ?><svg style="enable-background:new 0 0 32 32;" version="1.1" viewBox="0 0 32 32" xml:space="preserve" xmlns="http://www.w3.org/2000/svg" xmlns:xlink="http://www.w3.org/1999/xlink"><style type="text/css">
	.st0{fill:#222A30;}
	.st1{fill:none;stroke:#222A30;stroke-width:1.8761;stroke-linejoin:round;stroke-miterlimit:10;}
	.st2{fill:#171715;}
	.st3{fill-rule:evenodd;clip-rule:evenodd;fill:#222A30;}
</style><g id="Layer_1"/><g id="icons"><g id="you_x5F_tube"><path class="st0" d="M18,16.5l-3.6,1.7c-0.3,0.2-0.7-0.1-0.7-0.5v-3.5c0-0.4,0.4-0.6,0.8-0.5l3.6,1.8C18.4,15.8,18.4,16.4,18,16.5    z"/><path class="st0" d="M16,2C8.3,2,2,8.3,2,16s6.3,14,14,14s14-6.3,14-14S23.7,2,16,2z M24.6,18.2c0,2.2-1.7,3.9-3.9,3.9h-9.4    c-2.1,0-3.9-1.7-3.9-3.9v-4.3c0-2.2,1.7-3.9,3.9-3.9h9.4c2.1,0,3.9,1.7,3.9,3.9V18.2z"/></g></g></svg>